#!OML:ASF E:\motion texture\Top Level 1\Subject 1\Session 1\male.ASF
:FULLY-SPECIFIED
:DEGREES
143
root 10.9507 17.5142 5.54133 189.26 -89.2742 -182.734
lowerback -2.14933 -3.30773 -2.7528
upperback 0.113852 -4.4509 4.04078
thorax 1.85495 -2.29695 5.54087
lowerneck -15.0345 -4.60866 -7.01848
upperneck 17.0467 -7.36987 11.9259
head 8.50433 -2.88946 4.28901
rclavicle 7.25564e-015 3.97569e-015
rhumerus -31.172 -27.786 -72.536
rradius 27.9146
rwrist -3.95337
rhand -14.2796 -37.0328
rfingers 7.12502
rthumb 11.8595 -66.677
lclavicle 7.25564e-015 3.97569e-015
lhumerus -7.99025 24.7018 81.7965
lradius 46.6515
lwrist 27.8767
lhand -4.56036 22.6475
lfingers 7.12502
lthumb 21.2158 51.5065
rfemur -33.3664 3.39346 17.3826
rtibia 20.199
rfoot 2.65976 -8.11569
rtoes 6.82915
lfemur 6.84033 -5.27917 -22.102
ltibia 17.9835
lfoot -16.0471 -0.0445338
ltoes -15.4619
144
root 10.7831 17.5373 5.51492 155.107 -89.3791 -148.456
lowerback -2.20868 -3.34117 -2.32318
upperback 0.0223362 -4.51659 4.27533
thorax 1.78739 -2.32788 5.53939
lowerneck -15.1073 -4.61229 -7.00033
upperneck 17.2607 -7.33411 11.6393
head 8.57213 -2.89017 4.19439
rclavicle -3.37934e-015 5.88403e-014
rhumerus -32.021 -30.011 -70.8382
rradius 25.109
rwrist -1.02458
rhand -14.3132 -37.0173
rfingers 7.12502
rthumb 11.8271 -66.6633
lclavicle -3.37934e-015 5.88403e-014
lhumerus -8.75791 24.7346 81.1998
lradius 44.9999
lwrist 25.4958
lhand -4.76936 22.7388
lfingers 7.12502
lthumb 21.015 51.6202
rfemur -33.1436 3.5006 17.9029
rtibia 20.4228
rfoot 3.45506 -7.99263
rtoes 8.25271
lfemur 6.5462 -5.53241 -21.5794
ltibia 19.1658
lfoot -15.5078 -0.281773
ltoes -16.9343
145
root 10.6152 17.5632 5.48905 130.607 -89.2613 -123.84
lowerback -2.24748 -3.34693 -1.95693
upperback -0.0717357 -4.54253 4.48088
thorax 1.70347 -2.33911 5.54701
lowerneck -15.1977 -4.61691 -6.97072
upperneck 17.4729 -7.29938 11.348
head 8.64242 -2.891 4.09568
rclavicle -9.93923e-016 1.59028e-015
rhumerus -33.1863 -32.7521 -68.6296
rradius 22.4254
rwrist 2.80678
rhand -14.1856 -36.7669
rfingers 7.12502
rthumb 11.9501 -66.4058
lclavicle -9.93923e-016 1.59028e-015
lhumerus -9.57757 24.6561 80.6153
lradius 43.2965
lwrist 22.7919
lhand -5.0632 22.8615
lfingers 7.12502
lthumb 20.7327 51.774
rfemur -32.9016 3.55324 18.3874
rtibia 20.7454
rfoot 3.90928 -7.83155
rtoes 9.92053
lfemur 6.16976 -5.71345 -21.1316
ltibia 20.4736
lfoot -14.8465 -0.571544
ltoes -18.3851
146
root 10.4474 17.5912 5.46341 121.294 -89.1126 -114.438
lowerback -2.24986 -3.32909 -1.68184
upperback -0.161522 -4.53242 4.64784
thorax 1.60344 -2.33245 5.56986
lowerneck -15.3059 -4.6238 -6.9427
upperneck 17.6797 -7.26768 11.0685
head 8.71545 -2.8923 4.00047
rclavicle -2.20651e-014 -1.27222e-014
rhumerus -34.8351 -36.021 -65.765
rradius 19.9805
rwrist 7.53646
rhand -13.9186 -36.3328
rfingers 7.12502
rthumb 12.2076 -65.9566
lclavicle -2.20651e-014 -1.27222e-014
lhumerus -10.4304 24.484 80.0472
lradius 41.5415
lwrist 19.7589
lhand -5.47739 23.0279
lfingers 7.12502
lthumb 20.3347 51.9833
rfemur -32.6204 3.5654 18.7924
rtibia 21.1415
rfoot 4.01086 -7.60924
rtoes 11.5881
lfemur 5.72373 -5.82578 -20.7859
ltibia 21.9139
lfoot -14.0472 -0.922803
ltoes -19.7945
147
root 10.2801 17.6204 5.43807 120.047 -89.0123 -113.145
lowerback -2.20971 -3.29017 -1.49643
upperback -0.231226 -4.48953 4.7733
thorax 1.50029 -2.30967 5.60356
lowerneck -15.4522 -4.63732 -6.9136
upperneck 17.875 -7.24372 10.8015
head 8.79326 -2.89525 3.90759
rclavicle -5.31749e-014 3.02153e-014
rhumerus -37.1215 -39.7195 -62.1253
rradius 17.8741
rwrist 12.9987
rhand -13.5732 -35.7748
rfingers 7.12502
rthumb 12.5406 -65.3784
lclavicle -5.31749e-014 3.02153e-014
lhumerus -11.3009 24.188 79.5043
lradius 39.7719
lwrist 16.479
lhand -6.09626 23.3849
lfingers 7.12502
lthumb 19.7398 52.4026
rfemur -32.2659 3.55551 19.102
rtibia 21.5468
rfoot 3.81066 -7.32102
rtoes 12.9898
lfemur 5.21668 -5.86846 -20.5418
ltibia 23.4894
lfoot -13.0868 -1.34692
ltoes -21.0683
148
root 10.1133 17.6503 5.41281 122.505 -88.9593 -115.608
lowerback -2.13169 -3.23771 -1.37946
upperback -0.273987 -4.4251 4.86605
thorax 1.40399 -2.27649 5.64405
lowerneck -15.6202 -4.65685 -6.89484
upperneck 18.0425 -7.22519 10.5574
head 8.86785 -2.89926 3.82281
rclavicle 2.62396e-014 -1.19271e-014
rhumerus -40.1587 -43.5693 -57.6792
rradius 16.1777
rwrist 18.8111
rhand -13.2528 -35.2162
rfingers 7.12502
rthumb 12.8495 -64.8007
lclavicle 2.62396e-014 -1.19271e-014
lhumerus -12.1652 23.7774 79.0024
lradius 37.992
lwrist 12.9757
lhand -6.84438 23.9045
lfingers 7.12502
lthumb 19.0205 52.9944
rfemur -31.8053 3.55211 19.3269
rtibia 21.8943
rfoot 3.41231 -6.98121
rtoes 14.1557
lfemur 4.64846 -5.82155 -20.3535
ltibia 25.2007
lfoot -11.9345 -1.85849
ltoes -22.2239
149
root 9.94661 17.6803 5.38768 126.3 -88.9249 -119.453
lowerback -2.02589 -3.17695 -1.28931
upperback -0.290048 -4.34802 4.93791
thorax 1.31866 -2.23732 5.67895
lowerneck -15.7976 -4.68346 -6.88581
upperneck 18.1671 -7.21165 10.3316
head 8.93147 -2.90495 3.74453
rclavicle 2.16675e-014 -5.40694e-014
rhumerus -43.8623 -47.1175 -52.6458
rradius 14.9219
rwrist 24.4026
rhand -13.0363 -34.7443
rfingers 7.12502
rthumb 13.0582 -64.3155
lclavicle 2.16675e-014 -5.40694e-014
lhumerus -13.032 23.2304 78.5527
lradius 36.239
lwrist 9.31047
lhand -7.66902 24.6039
lfingers 7.12502
lthumb 18.2273 53.7699
rfemur -31.2304 3.55198 19.5106
rtibia 22.1329
rfoot 2.95601 -6.58611
rtoes 15.179
lfemur 4.01553 -5.67075 -20.1641
ltibia 27.0267
lfoot -10.5536 -2.44776
ltoes -23.2046
150
root 9.77975 17.7098 5.36213 128.874 -88.8846 -122.105
lowerback -1.92172 -3.11504 -1.18435
upperback -0.280158 -4.27006 5.0023
thorax 1.25927 -2.19836 5.69642
lowerneck -15.9736 -4.71746 -6.88611
upperneck 18.2422 -7.20428 10.1263
head 8.97994 -2.91298 3.67331
rclavicle 3.42904e-014 0
rhumerus -47.7735 -49.8594 -47.6564
rradius 14.0935
rwrist 29.0921
rhand -13.0035 -34.5039
rfingers 7.12502
rthumb 13.0898 -64.0732
lclavicle 3.42904e-014 0
lhumerus -13.872 22.5791 78.1669
lradius 34.5082
lwrist 5.46804
lhand -8.28057 25.1801
lfingers 7.12502
lthumb 17.6389 54.4
rfemur -30.551 3.5586 19.705
rtibia 22.2441
rfoot 2.53738 -6.19397
rtoes 16.1841
lfemur 3.30627 -5.4235 -19.9088
ltibia 28.9445
lfoot -8.89056 -3.09171
ltoes -23.8856
151
root 9.61223 17.7381 5.33581 128.272 -88.8172 -121.583
lowerback -1.85097 -3.05835 -1.02272
upperback -0.254913 -4.20178 5.07527
thorax 1.23217 -2.165 5.68765
lowerneck -16.1291 -4.75505 -6.89628
upperneck 18.2619 -7.19808 9.93967
head 9.00702 -2.92182 3.60954
rclavicle -1.61016e-014 -1.27222e-014
rhumerus -51.2091 -51.5389 -43.5022
rradius 13.6134
rwrist 32.4675
rhand -13.1531 -34.5403
rfingers 7.12502
rthumb 12.9456 -64.1187
lclavicle -1.61016e-014 -1.27222e-014
lhumerus -14.671 21.8726 77.853
lradius 32.781
lwrist 1.4563
lhand -8.65155 25.686
lfingers 7.12502
lthumb 17.2818 54.9376
rfemur -29.7964 3.56847 19.9648
rtibia 22.2266
rfoot 2.20533 -5.86158
rtoes 17.2125
lfemur 2.50454 -5.10059 -19.5352
ltibia 30.92
lfoot -6.91501 -3.73024
ltoes -24.2355
152
root 9.44379 17.7647 5.30868 123.733 -88.7068 -117.1
lowerback -1.836 -3.01362 -0.779119
upperback -0.225496 -4.15357 5.16654
thorax 1.23857 -2.14237 5.6473
lowerneck -16.2673 -4.79604 -6.88568
upperneck 18.2393 -7.19191 9.72784
head 9.01467 -2.93275 3.53325
rclavicle 4.91992e-014 2.06736e-014
rhumerus -53.5756 -52.1451 -40.8347
rradius 13.4025
rwrist 34.4152
rhand -13.4337 -34.8282
rfingers 7.12502
rthumb 12.6751 -64.4236
lclavicle 4.91992e-014 2.06736e-014
lhumerus -15.4341 21.163 77.6022
lradius 31.0529
lwrist -2.7435
lhand -8.79521 25.7699
lfingers 7.12502
lthumb 17.1436 55.0336
rfemur -29.0041 3.58405 20.3213
rtibia 22.1027
rfoot 1.94558 -5.61548
rtoes 18.2242
lfemur 1.60211 -4.73648 -19.0214
ltibia 32.9234
lfoot -4.62213 -4.31065
ltoes -24.1547
153
root 9.27559 17.7893 5.28082 116.543 -88.5066 -109.922
lowerback -1.88646 -2.97479 -0.428247
upperback -0.205811 -4.11887 5.28592
thorax 1.26786 -2.12688 5.57174
lowerneck -16.3835 -4.83733 -6.88344
upperneck 18.1975 -7.18709 9.53107
head 9.0128 -2.94453 3.4635
rclavicle 2.87244e-014 -5.725e-014
rhumerus -54.5202 -51.716 -40.0536
rradius 13.4183
rwrist 34.9275
rhand -13.7646 -35.3169
rfingers 7.12502
rthumb 12.3561 -64.9317
lclavicle 2.87244e-014 -5.725e-014
lhumerus -16.1829 20.4287 77.4168
lradius 29.3545
lwrist -7.06178
lhand -8.80962 25.6369
lfingers 7.12502
lthumb 17.1297 54.9018
rfemur -28.2341 3.60857 20.8088
rtibia 21.929
rfoot 1.7073 -5.42806
rtoes 19.1498
lfemur 0.587729 -4.35618 -18.3482
ltibia 34.9432
lfoot -2.07058 -4.79171
ltoes -23.5806
154
root 9.10822 17.8119 5.25247 108.844 -88.1937 -102.198
lowerback -1.98616 -2.94272 0.0251703
upperback -0.197217 -4.09953 5.43558
thorax 1.31028 -2.11935 5.46701
lowerneck -16.4862 -4.87582 -6.88061
upperneck 18.1554 -7.17945 9.33324
head 9.00799 -2.9557 3.3939
rclavicle 2.13694e-014 0
rhumerus -54.3595 -50.5495 -40.7404
rradius 13.5824
rwrist 34.4653
rhand -14.0796 -35.8651
rfingers 7.12502
rthumb 12.0524 -65.4981
lclavicle 2.13694e-014 0
lhumerus -16.9224 19.7137 77.2911
lradius 27.7005
lwrist -11.4351
lhand -8.75521 25.2591
lfingers 7.12502
lthumb 17.1821 54.5195
rfemur -27.4937 3.64241 21.4241
rtibia 21.7335
rfoot 1.43931 -5.29172
rtoes 19.923
lfemur -0.518675 -3.98148 -17.5346
ltibia 36.9694
lfoot 0.642324 -5.16969
ltoes -22.5749
155
root 8.94275 17.8319 5.22426 102.61 -87.7719 -95.9091
lowerback -2.11688 -2.90898 0.562115
upperback -0.199065 -4.08406 5.60795
thorax 1.35591 -2.11382 5.33767
lowerneck -16.5836 -4.91036 -6.87893
upperneck 18.128 -7.17036 9.14361
head 9.0075 -2.96576 3.32779
rclavicle -5.76476e-015 -3.18055e-015
rhumerus -53.5925 -48.9369 -42.2704
rradius 13.8325
rwrist 33.4789
rhand -14.3434 -36.3103
rfingers 7.12502
rthumb 11.7979 -65.958
lclavicle -5.76476e-015 -3.18055e-015
lhumerus -17.6642 19.0116 77.2256
lradius 26.1249
lwrist -15.8174
lhand -8.63802 24.7306
lfingers 7.12502
lthumb 17.2948 53.9811
rfemur -26.7981 3.68376 22.1415
rtibia 21.5484
rfoot 1.11076 -5.19847
rtoes 20.4925
lfemur -1.70231 -3.61516 -16.6216
ltibia 38.9938
lfoot 3.42161 -5.47383
ltoes -21.1008
